<svg xmlns="http://www.w3.org/2000/svg" id="Calque_1" width="1280" height="720" viewBox="0 0 1280 720"><defs/><rect width="1280" height="720" style="fill:#ffeed0"/><path d="m1220.61,421.9c27.62,165.72,56.45,225.33-72.77,274.52-94.58,36-196.65-67.04-325.16-37.62-107.12,24.52-290.86,24.98-339.1,9.29-128.52-41.81-311.23,74.32-390.19,7.74-136.87-115.4-46.93-164.4-37.16-334.45,2.34-40.67-13.19-75.96-18.58-113.03-12.46-85.71-17.5-160.79,43.35-190.01,94.45-45.34,116.13,32.07,300.39-6.64,164.42-34.54,250.84-13.94,404.13,13.94,112.32,20.42,230.71-86.71,414.97-1.55,68.14,31.49,64.34,83.4,46.45,156.39-14.64,59.71-40.95,133.63-26.32,221.42Z" style="fill:#ffa303"/></svg>