<svg xmlns="http://www.w3.org/2000/svg" id="Calque_1" data-name="Calque 1" viewBox="0 0 600 600"><defs/><path d="M286 314.33a11.19 11.19 0 1 1 11-11.18A11.09 11.09 0 0 1 286 314.33ZM294.38 267.93a11.19 11.19 0 1 1-11.67 10.49A11.06 11.06 0 0 1 294.38 267.93ZM261.42 306.31A11.19 11.19 0 1 1 273 295.74 11.07 11.07 0 0 1 261.42 306.31ZM318.76 298.31a11.19 11.19 0 1 1 11.06-11.14A11.09 11.09 0 0 1 318.76 298.31ZM278 339.08a11.19 11.19 0 1 1 11-11.16A11.09 11.09 0 0 1 278 339.08ZM321.81 311.57A11.19 11.19 0 1 1 311.23 300 11.07 11.07 0 0 1 321.81 311.57ZM330.36 367.8a11 11 0 1 1-11.23-10.86A10.86 10.86 0 0 1 330.36 367.8ZM302.67 347a11.14 11.14 0 1 1 11.09-11A11 11 0 0 1 302.67 347ZM288.23 246.39a11.1 11.1 0 1 1-11-11.14A10.92 10.92 0 0 1 288.23 246.39ZM294.49 371a11.06 11.06 0 1 1 11.17-10.86A10.88 10.88 0 0 1 294.49 371ZM313 254.25a11.14 11.14 0 1 1-11.06-11A11 11 0 0 1 313 254.25ZM270 363.71a11.06 11.06 0 1 1 10.93-11.1A10.89 10.89 0 0 1 270 363.71ZM353.8 295.12a11.14 11.14 0 1 1-11-11.13A11 11 0 0 1 353.8 295.12ZM264.1 238.48a11 11 0 1 1-10.95-11.14A10.86 10.86 0 0 1 264.1 238.48ZM229.11 300.85a11 11 0 1 1-11.06 11A10.86 10.86 0 0 1 229.11 300.85ZM345.65 237.66a11 11 0 1 1-11-11.05A10.86 10.86 0 0 1 345.65 237.66ZM256.85 344.52a11 11 0 1 1-11.15-10.9A10.87 10.87 0 0 1 256.85 344.52ZM367.29 313.41a11 11 0 1 1 11.13-11A10.86 10.86 0 0 1 367.29 313.41ZM370.44 327.47a11 11 0 1 1-10.72-11.34A10.88 10.88 0 0 1 370.44 327.47ZM326.85 332.81a11.1 11.1 0 1 1-11.3 10.8A10.93 10.93 0 0 1 326.85 332.81ZM248.14 287a11.06 11.06 0 1 1-11-11A10.88 10.88 0 0 1 248.14 287ZM320.92 229.53a11 11 0 1 1-11.1-11A10.86 10.86 0 0 1 320.92 229.53ZM280.26 271a11.14 11.14 0 1 1-11-11.08A11 11 0 0 1 280.26 271ZM334.5 308a11.14 11.14 0 1 1-11 11.11A11 11 0 0 1 334.5 308ZM361.73 270.54a11.06 11.06 0 1 1-10.8-11.23A10.88 10.88 0 0 1 361.73 270.54ZM337.78 262.36a11.14 11.14 0 1 1-11-11.14A11 11 0 0 1 337.78 262.36ZM256.15 263a11.06 11.06 0 1 1-11-11A10.88 10.88 0 0 1 256.15 263ZM253.87 331A11.14 11.14 0 1 1 265 320 11 11 0 0 1 253.87 331ZM351.29 340.95a11 11 0 1 1-10.86 11.18A10.86 10.86 0 0 1 351.29 340.95ZM296.11 222.42a11 11 0 1 1-11-11.08A10.86 10.86 0 0 1 296.11 222.42ZM237.75 379.58a10.91 10.91 0 1 1 11-10.76A11 11 0 0 1 237.75 379.58ZM354.3 376.06a10.91 10.91 0 1 1-10.7-11A11 11 0 0 1 354.3 376.06ZM261.67 365.75a10.93 10.93 0 1 1-10.76 11A10.91 10.91 0 0 1 261.67 365.75ZM386.38 278.64a11 11 0 1 1-10.51-11.2A10.89 10.89 0 0 1 386.38 278.64ZM261 203.4a10.91 10.91 0 1 1-10.77 11A11 11 0 0 1 261 203.4ZM212.39 268.91a10.93 10.93 0 1 1-11 10.78A10.89 10.89 0 0 1 212.39 268.91ZM193.41 303.89a10.91 10.91 0 1 1 10.85 10.88A11 11 0 0 1 193.41 303.89ZM220.93 347.58A11 11 0 1 1 232 336.95 10.88 10.88 0 0 1 220.93 347.58ZM358.8 234.67a11 11 0 1 1-11.07 10.64A10.88 10.88 0 0 1 358.8 234.67ZM220.23 244.15a10.93 10.93 0 1 1-10.82 10.95A10.91 10.91 0 0 1 220.23 244.15ZM297.53 384.82a10.93 10.93 0 1 1-10.71-11.06A10.91 10.91 0 0 1 297.53 384.82ZM322.24 392.62a10.89 10.89 0 1 1-11-10.81A11 11 0 0 1 322.24 392.62ZM384 324.29a10.89 10.89 0 1 1-10.72 11.05A11 11 0 0 1 384 324.29ZM317.92 194.68A10.89 10.89 0 1 1 307 205.56 11 11 0 0 1 317.92 194.68ZM228.27 219.46a10.86 10.86 0 1 1-10.78 10.94A11 11 0 0 1 228.27 219.46ZM341.83 202.72a10.86 10.86 0 1 1-10.75 11A11 11 0 0 1 341.83 202.72ZM403 310.31a10.86 10.86 0 1 1-11-10.75A11 11 0 0 1 403 310.31ZM394.3 253.92a10.87 10.87 0 1 1-10.57-11.16A11 11 0 0 1 394.3 253.92ZM207.11 328.63a10.8 10.8 0 1 1-10.62-10.81A11 11 0 0 1 207.11 328.63ZM377.49 221.59a10.8 10.8 0 1 1-10.62-10.81A11 11 0 0 1 377.49 221.59ZM387 360.22a10.84 10.84 0 1 1-10.63-11.13A11 11 0 0 1 387 360.22ZM213.06 349.85a10.8 10.8 0 1 1-10.8 10.62A11 11 0 0 1 213.06 349.85ZM399.58 297.19a10.8 10.8 0 1 1 10.67-10.75A11 11 0 0 1 399.58 297.19ZM304 197.55a10.84 10.84 0 1 1-10.94-10.83A11 11 0 0 1 304 197.55ZM207 247a10.67 10.67 0 1 1-10.75-10.59A10.81 10.81 0 0 1 207 247ZM269.11 178.88a10.67 10.67 0 1 1-10.66 10.69A10.81 10.81 0 0 1 269.11 178.88ZM378.82 383.88a10.67 10.67 0 1 1-10.75-10.6A10.81 10.81 0 0 1 378.82 383.88ZM236.45 217A10.67 10.67 0 1 1 247 206.2 10.81 10.81 0 0 1 236.45 217ZM199 271.91a10.67 10.67 0 1 1-10.59-10.76A10.81 10.81 0 0 1 199 271.91ZM335.38 411.43A10.72 10.72 0 1 1 346.1 400.8 10.9 10.9 0 0 1 335.38 411.43ZM253.93 390.76a10.67 10.67 0 1 1-10.77 10.58A10.81 10.81 0 0 1 253.93 390.76ZM278.57 398.77a10.67 10.67 0 1 1-10.66 10.69A10.81 10.81 0 0 1 278.57 398.77ZM240.35 393.27a10.54 10.54 0 1 1-10.79-10.39A10.51 10.51 0 0 1 240.35 393.27ZM180.58 285.32a10.54 10.54 0 1 1-10.82 10.35A10.51 10.51 0 0 1 180.58 285.32ZM350.05 199.19a10.37 10.37 0 1 1 10.26-10.39A10.19 10.19 0 0 1 350.05 199.19ZM418.61 343.06a10.41 10.41 0 1 1-10.45-10.29A10.26 10.26 0 0 1 418.61 343.06ZM416.31 328.8a10.37 10.37 0 1 1 10.26-10.39A10.19 10.19 0 0 1 416.31 328.8ZM188.22 342.23a10.41 10.41 0 1 1-10.33 10.4A10.25 10.25 0 0 1 188.22 342.23ZM204.34 211.9a10.42 10.42 0 1 1-10.43 10.3A10.25 10.25 0 0 1 204.34 211.9ZM325.91 191.18a10.37 10.37 0 1 1 10.37-10.27A10.19 10.19 0 0 1 325.91 191.18ZM391.32 240.07a10.47 10.47 0 1 1 10.59-10.17A10.36 10.36 0 0 1 391.32 240.07ZM407.59 272.1a10.47 10.47 0 1 1 10.34-10.41A10.35 10.35 0 0 1 407.59 272.1ZM303.21 427.92a10.47 10.47 0 1 1 10.61-10.15A10.36 10.36 0 0 1 303.21 427.92ZM311.46 172.67a10.3 10.3 0 1 1-10.53-10.16A10.15 10.15 0 0 1 311.46 172.67ZM172.31 330.91a10.3 10.3 0 1 1 10.27-10.42A10.15 10.15 0 0 1 172.31 330.91ZM400.09 357.61A10.33 10.33 0 1 1 389.85 368 10.16 10.16 0 0 1 400.09 357.61ZM205.06 375.12a10.3 10.3 0 1 1-10.31 10.37A10.15 10.15 0 0 1 205.06 375.12ZM254.63 181.66a10.27 10.27 0 1 1-10.24-10.38A10.15 10.15 0 0 1 254.63 181.66ZM434.48 294.71a10.27 10.27 0 1 1-10-10.57A10.17 10.17 0 0 1 434.48 294.71ZM385 197a10.27 10.27 0 1 1-10.21-10.41A10.15 10.15 0 0 1 385 197ZM360.4 398.45a10.27 10.27 0 1 1-10.53 10.09A10.16 10.16 0 0 1 360.4 398.45ZM211.61 208.53a10.24 10.24 0 1 1 10.23-10.07A10.17 10.17 0 0 1 211.61 208.53ZM327.31 435.7a10.24 10.24 0 1 1 10.3-10A10.17 10.17 0 0 1 327.31 435.7ZM415.42 227.42a10.19 10.19 0 1 1-10.13 10.15A10.21 10.21 0 0 1 415.42 227.42ZM287.3 164.68a10.17 10.17 0 1 1-10.29-10A10.24 10.24 0 0 1 287.3 164.68ZM402.36 392.26a10.19 10.19 0 1 1-9.8-10.48A10.22 10.22 0 0 1 402.36 392.26ZM245.75 415.29a10.17 10.17 0 1 1-10.1 10.24A10.24 10.24 0 0 1 245.75 415.29ZM191.14 377.45A10.12 10.12 0 1 1 181 367.29 10.25 10.25 0 0 1 191.14 377.45ZM163.71 253.67a10.15 10.15 0 1 1-10.31 10.08A10.26 10.26 0 0 1 163.71 253.67ZM155.54 297.93a10.08 10.08 0 1 1 10.08-9.9A10.27 10.27 0 0 1 155.54 297.93ZM399.63 194.73a10.12 10.12 0 1 1-10.29 10A10.26 10.26 0 0 1 399.63 194.73ZM171.55 249.21A10.15 10.15 0 1 1 181.7 239 10.25 10.25 0 0 1 171.55 249.21ZM442.34 269.49a10.12 10.12 0 1 1-10.36-10A10.25 10.25 0 0 1 442.34 269.49ZM174.39 344.78a10.12 10.12 0 1 1-10.06-10.26A10.26 10.26 0 0 1 174.39 344.78ZM221.8 407.37a10.08 10.08 0 1 1-10.09 9.9A10.27 10.27 0 0 1 221.8 407.37ZM270.76 423.32a10.15 10.15 0 1 1-10.32 10.06A10.26 10.26 0 0 1 270.76 423.32ZM295.34 431.43a10 10 0 1 1-10 9.95A10.23 10.23 0 0 1 295.34 431.43ZM179.66 224.31a10 10 0 1 1 9.91-10.09A10.19 10.19 0 0 1 179.66 224.31ZM362.08 433.44a9.95 9.95 0 1 1-10-9.92A10.1 10.1 0 0 1 362.08 433.44ZM358 174.68a9.88 9.88 0 1 1 9.83-10A10 10 0 0 1 358 174.68ZM442.83 351.19a9.88 9.88 0 1 1-10-9.88A10 10 0 0 1 442.83 351.19ZM197.1 400.36a9.81 9.81 0 1 1-9.87 9.56A9.78 9.78 0 0 1 197.1 400.36ZM384.09 426.6a9.88 9.88 0 1 1 10-9.9A10 10 0 0 1 384.09 426.6ZM219.62 183.42a9.88 9.88 0 1 1 9.88-10A10 10 0 0 1 219.62 183.42ZM262.18 156.61a9.81 9.81 0 1 1-9.8-9.63A9.79 9.79 0 0 1 262.18 156.61ZM440.79 316.63a9.81 9.81 0 1 1-9.64 9.79A9.79 9.79 0 0 1 440.79 316.63ZM333.95 166.67a9.88 9.88 0 1 1 9.86-10A10 10 0 0 1 333.95 166.67ZM318.9 148.79a9.73 9.73 0 1 1-9.63-9.75A9.62 9.62 0 0 1 318.9 148.79ZM424.8 366.22a9.73 9.73 0 1 1-9.59 9.78A9.64 9.64 0 0 1 424.8 366.22ZM147.7 302.87a9.73 9.73 0 1 1-9.9 9.47A9.63 9.63 0 0 1 147.7 302.87ZM177.95 190.22a9.63 9.63 0 1 1 9.57 9.68A9.46 9.46 0 0 1 177.95 190.22ZM448.93 312a9.63 9.63 0 1 1 9.66-9.59A9.46 9.46 0 0 1 448.93 312ZM319.2 459.11a9.63 9.63 0 1 1 9.79-9.46A9.47 9.47 0 0 1 319.2 459.11ZM449.82 244.83a9.59 9.59 0 1 1-9.74-9.53A9.42 9.42 0 0 1 449.82 244.83ZM423.39 203.26A9.59 9.59 0 1 1 413.9 213 9.42 9.42 0 0 1 423.39 203.26ZM382.65 162.49a9.59 9.59 0 1 1-9.53 9.74A9.42 9.42 0 0 1 382.65 162.49ZM416.85 390.48a9.5 9.5 0 1 1-9.42 9.49A9.43 9.43 0 0 1 416.85 390.48ZM173.19 411.61a9.45 9.45 0 1 1 9.27-9.62A9.49 9.49 0 0 1 173.19 411.61ZM156.31 359.87a9.52 9.52 0 1 1-9.57 9.29A9.42 9.42 0 0 1 156.31 359.87ZM285.2 131.27a9.5 9.5 0 1 1-9.56 9.34A9.43 9.43 0 0 1 285.2 131.27ZM149 336.46a9.45 9.45 0 1 1-9.62-9.27A9.49 9.49 0 0 1 149 336.46ZM466.4 277.57a9.42 9.42 0 1 1-9.6-9.34A9.52 9.52 0 0 1 466.4 277.57ZM248 450.38a9.43 9.43 0 1 1-9.35-9.58A9.53 9.53 0 0 1 248 450.38ZM227.45 158.14A9.36 9.36 0 1 1 237 149 9.56 9.56 0 0 1 227.45 158.14ZM272 458.29a9.39 9.39 0 1 1-9.14-9.46A9.55 9.55 0 0 1 272 458.29ZM146.83 221.66a9.39 9.39 0 1 1-9.42 9.18A9.55 9.55 0 0 1 146.83 221.66ZM138.79 246.42a9.39 9.39 0 1 1-9.39 9.21A9.54 9.54 0 0 1 138.79 246.42ZM407.47 170.7a9.39 9.39 0 1 1-9.39 9.21A9.54 9.54 0 0 1 407.47 170.7ZM385.55 440.79a9.39 9.39 0 1 1-9.17-9.43A9.55 9.55 0 0 1 385.55 440.79ZM140.1 279.8a9.32 9.32 0 1 1-9.26-9.28A9.52 9.52 0 0 1 140.1 279.8ZM195.41 174.79a9.27 9.27 0 1 1 9.44-9.09A9.45 9.45 0 0 1 195.41 174.79ZM223.1 442.15a9.32 9.32 0 1 1-9.28-9.26A9.53 9.53 0 0 1 223.1 442.15ZM353.43 457.67a9.32 9.32 0 1 1-9-9.49A9.53 9.53 0 0 1 353.43 457.67ZM287.3 457a9.2 9.2 0 1 1-9.18 9.32A9.33 9.33 0 0 1 287.3 457ZM155.31 197.19a9.12 9.12 0 1 1-9.59 8.43A9.12 9.12 0 0 1 155.31 197.19ZM408.79 415.6a9.13 9.13 0 1 1-9 9.08A9.19 9.19 0 0 1 408.79 415.6ZM269.52 132.76a9.13 9.13 0 1 1-8.95-9.14A9.19 9.19 0 0 1 269.52 132.76ZM132.42 304.66a8.92 8.92 0 1 1-8.94-9A8.75 8.75 0 0 1 132.42 304.66ZM456.9 368.18a9 9 0 1 1 9.06-8.9A8.84 8.84 0 0 1 456.9 368.18ZM457.28 220.94a9 9 0 1 1-8.87-9.12A9 9 0 0 1 457.28 220.94ZM473.9 334.53a8.92 8.92 0 1 1-8.93-9A8.75 8.75 0 0 1 473.9 334.53ZM189.17 425.28a8.92 8.92 0 1 1-9.06 8.87A8.75 8.75 0 0 1 189.17 425.28ZM342 123.11a8.92 8.92 0 1 1-9 9A8.74 8.74 0 0 1 342 123.11ZM140.31 361.45a8.8 8.8 0 1 1-8.64-8.87A8.69 8.69 0 0 1 140.31 361.45ZM148.08 403a8.8 8.8 0 1 1 9-8.53A8.69 8.69 0 0 1 148.08 403ZM440.33 188.12a8.83 8.83 0 1 1-8.63-8.86A8.68 8.68 0 0 1 440.33 188.12ZM162.85 173.5a8.77 8.77 0 1 1-8.8 8.65A8.7 8.7 0 0 1 162.85 173.5ZM365.93 148.91a8.87 8.87 0 1 1 8.91-8.93A8.7 8.7 0 0 1 365.93 148.91ZM326 124.2a8.8 8.8 0 1 1-8.53-9A8.69 8.69 0 0 1 326 124.2ZM481.76 310.52a8.77 8.77 0 1 1-8.58-8.87A8.71 8.71 0 0 1 481.76 310.52ZM320.15 474.09a8.8 8.8 0 1 1-8.86-8.65A8.69 8.69 0 0 1 320.15 474.09ZM458.49 383.2a8.8 8.8 0 1 1-8.73-8.78A8.69 8.69 0 0 1 458.49 383.2ZM473.82 252.93a8.83 8.83 0 1 1-8.62-8.87A8.68 8.68 0 0 1 473.82 252.93Z" style="fill:#211c1d"/><circle cx="390.72" cy="148.05" r="8.75" transform="rotate(-89.58 390.738 148.038)" style="fill:#211c1d"/><path d="M164.88 434.81a8.62 8.62 0 1 1 8.74-8.4A8.81 8.81 0 0 1 164.88 434.81ZM450.3 408.1a8.62 8.62 0 1 1-8.41-8.73A8.8 8.8 0 0 1 450.3 408.1ZM377.49 465.79a8.62 8.62 0 1 1-8.24-8.9A8.82 8.82 0 0 1 377.49 465.79ZM301 116.11a8.62 8.62 0 1 1-8.43-8.72A8.8 8.8 0 0 1 301 116.11ZM203.46 132.88a8.62 8.62 0 1 1-8.49 8.66A8.82 8.82 0 0 1 203.46 132.88ZM124.06 329.39a8.57 8.57 0 1 1-8.53-8.61A8.74 8.74 0 0 1 124.06 329.39ZM400.74 457.33a8.57 8.57 0 1 1 8.74-8.39A8.76 8.76 0 0 1 400.74 457.33ZM244.14 124.6a8.51 8.51 0 1 1-8.75-8.36A8.66 8.66 0 0 1 244.14 124.6ZM423.82 156.06a8.35 8.35 0 1 1-8.26-8.35A8.33 8.33 0 0 1 423.82 156.06ZM481 277.23a8.44 8.44 0 1 1-8.48 8.21A8.5 8.5 0 0 1 481 277.23ZM344.31 482.1a8.2 8.2 0 1 1-8.44-8.05A8.05 8.05 0 0 1 344.31 482.1ZM123 247.93a8.21 8.21 0 1 1-8.16-8.34A8.07 8.07 0 0 1 123 247.93ZM230.7 483.17a8.2 8.2 0 1 1 8-8.46A8.06 8.06 0 0 1 230.7 483.17ZM170.94 149.31a8.21 8.21 0 1 1-8.32 8.18A8.06 8.06 0 0 1 170.94 149.31ZM205.75 458.89a8.07 8.07 0 1 1-8 8A8 8 0 0 1 205.75 458.89ZM481.1 228.77a8.11 8.11 0 1 1-8.12-8A8 8 0 0 1 481.1 228.77ZM433.57 440.78a8 8 0 1 1 8.15-7.93A8 8 0 0 1 433.57 440.78ZM130.92 223a8.15 8.15 0 1 1-8-8.08A8 8 0 0 1 130.92 223ZM114.82 271.91a8.07 8.07 0 1 1-7.9-8.15A8 8 0 0 1 114.82 271.91ZM456.33 188a8.11 8.11 0 1 1-8.19 7.94A8 8 0 0 1 456.33 188ZM254.47 491.13a8.15 8.15 0 1 1 8.24-7.88A8 8 0 0 1 254.47 491.13ZM276.4 108a8 8 0 1 1-8.06-8A8 8 0 0 1 276.4 108ZM123.66 378.14a8 8 0 1 1-8.17 7.93A8 8 0 0 1 123.66 378.14ZM138.79 199.15a8 8 0 1 1-8-8.14A8 8 0 0 1 138.79 199.15ZM279.14 499a8 8 0 1 1 8.18-7.92A8 8 0 0 1 279.14 499ZM107.54 361.23a7.86 7.86 0 1 1 7.8-8A8.06 8.06 0 0 1 107.54 361.23ZM439.39 156.21a7.86 7.86 0 1 1-7.74 8.06A8.05 8.05 0 0 1 439.39 156.21ZM148.1 418.35a7.86 7.86 0 1 1-7.78-8A8.06 8.06 0 0 1 148.1 418.35ZM481.16 260.63a7.86 7.86 0 1 1 7.67 8.14A8.07 8.07 0 0 1 481.16 260.63ZM98.74 304.38a7.8 7.8 0 1 1 7.8-7.61A8 8 0 0 1 98.74 304.38ZM181.13 466.75a7.8 7.8 0 1 1 7.69-7.72A8 8 0 0 1 181.13 466.75ZM357.58 107.36A7.63 7.63 0 1 1 350 99.64 7.65 7.65 0 0 1 357.58 107.36ZM489.88 334.73a7.72 7.72 0 1 1-7.86 7.49A7.84 7.84 0 0 1 489.88 334.73ZM489.45 367.13a7.72 7.72 0 1 1-7.71-7.65A7.84 7.84 0 0 1 489.45 367.13ZM381.6 115.19a7.63 7.63 0 1 1-7.73-7.53A7.65 7.65 0 0 1 381.6 115.19ZM178.92 126.12a7.37 7.37 0 1 1-7.45 7.2A7.21 7.21 0 0 1 178.92 126.12ZM505.11 318.43a7.37 7.37 0 1 1-7.28-7.36A7.2 7.2 0 0 1 505.11 318.43ZM146.33 174.09a7.54 7.54 0 1 1-7.8-7.37A7.44 7.44 0 0 1 146.33 174.09ZM332.58 99.8a7.42 7.42 0 1 1-6.78-7.92A7.25 7.25 0 0 1 332.58 99.8ZM393 466a7.54 7.54 0 1 1-7.68 7.49A7.45 7.45 0 0 1 393 466ZM406.05 123.5a7.33 7.33 0 1 1-7.12-7.53A7.24 7.24 0 0 1 406.05 123.5ZM466.18 391.41a7.54 7.54 0 1 1 7.8 7.37A7.44 7.44 0 0 1 466.18 391.41ZM219.07 116.61a7.47 7.47 0 1 1-7.42-7.34A7.3 7.3 0 0 1 219.07 116.61ZM368.23 490.4a7.37 7.37 0 1 1-7.13-7.51A7.21 7.21 0 0 1 368.23 490.4ZM303.17 490.73a7.54 7.54 0 1 1-7.37 7.8A7.44 7.44 0 0 1 303.17 490.73ZM425.77 449.47a7.3 7.3 0 1 1-7.4 7.28A7.27 7.27 0 0 1 425.77 449.47ZM243.59 92.73a7.27 7.27 0 1 1-7.22 7.13A7.32 7.32 0 0 1 243.59 92.73ZM97.92 321.49a7.19 7.19 0 1 1-7-7.34A7.37 7.37 0 0 1 97.92 321.49ZM164.22 450.83a7.23 7.23 0 1 1-7.25-7.12A7.36 7.36 0 0 1 164.22 450.83ZM465.67 408.81a7.19 7.19 0 1 1-7.14 7.23A7.36 7.36 0 0 1 465.67 408.81ZM307.57 91.3a7.14 7.14 0 1 1-7.19-7.18A7.33 7.33 0 0 1 307.57 91.3ZM480.55 197a7.14 7.14 0 1 1-7.42 6.95A7.34 7.34 0 0 1 480.55 197ZM429.64 131.4a6.88 6.88 0 1 1-6.79-7A6.82 6.82 0 0 1 429.64 131.4ZM512.64 293.77a6.88 6.88 0 1 1-6.79-7A6.82 6.82 0 0 1 512.64 293.77ZM328.19 499.4a6.88 6.88 0 1 1-7 6.79A6.82 6.82 0 0 1 328.19 499.4ZM464.19 165.29a6.79 6.79 0 1 1-6.72 6.67A6.65 6.65 0 0 1 464.19 165.29ZM153.59 149.39a6.79 6.79 0 1 1-6.72-6.67A6.65 6.65 0 0 1 153.59 149.39ZM503.81 236.83a6.79 6.79 0 1 1-6.65-6.74A6.65 6.65 0 0 1 503.81 236.83ZM122.15 410.21a6.66 6.66 0 1 1-6.62-6.7A6.52 6.52 0 0 1 122.15 410.21ZM106.13 378.31a6.66 6.66 0 1 1-6.48-6.84A6.54 6.54 0 0 1 106.13 378.31ZM457.58 434.25a6.5 6.5 0 1 1-6.38 6.63A6.61 6.61 0 0 1 457.58 434.25ZM276.25 90.48a6.5 6.5 0 1 1 6.66-6.35A6.61 6.61 0 0 1 276.25 90.48ZM104.56 215.19a6.55 6.55 0 1 1-6.3-6.69A6.6 6.6 0 0 1 104.56 215.19ZM229.14 498.94a6.61 6.61 0 1 1-6.76-6.55A6.51 6.51 0 0 1 229.14 498.94ZM240 506.72a6.58 6.58 0 1 1 6.11 6.85A6.56 6.56 0 0 1 240 506.72ZM96.55 239.69A6.54 6.54 0 1 1 90 233.25 6.6 6.6 0 0 1 96.55 239.69ZM197.75 497.44a6.46 6.46 0 1 1 6.47-6.53A6.6 6.6 0 0 1 197.75 497.44ZM277.62 514.87a6.32 6.32 0 1 1-6.37-6.17A6.49 6.49 0 0 1 277.62 514.87ZM81.91 257.43a6.39 6.39 0 1 1-6.3 6.31A6.58 6.58 0 0 1 81.91 257.43ZM99.81 190.91a6.21 6.21 0 1 1 6.12 6.31A6.25 6.25 0 0 1 99.81 190.91ZM385 492.06a6.21 6.21 0 1 1-6.31 6.12A6.25 6.25 0 0 1 385 492.06ZM88.94 345.46a6.21 6.21 0 1 1-6.13-6.3A6.25 6.25 0 0 1 88.94 345.46ZM132.33 449.15a6.21 6.21 0 1 1 6.12-6.31A6.25 6.25 0 0 1 132.33 449.15ZM453.52 139.14a6 6 0 1 1-6.09-5.84A5.89 5.89 0 0 1 453.52 139.14ZM519.78 269a6 6 0 1 1-5.84-6.09A5.88 5.88 0 0 1 519.78 269ZM423.67 481.64a6 6 0 1 1-5.8-6.13A5.88 5.88 0 0 1 423.67 481.64ZM186.77 102.64a6.09 6.09 0 1 1-6 6A6 6 0 0 1 186.77 102.64ZM219.59 86a5.94 5.94 0 1 1-5.92 6A5.79 5.79 0 0 1 219.59 86ZM79.84 288.41A5.85 5.85 0 1 1 74 282.73 5.79 5.79 0 0 1 79.84 288.41ZM173.12 488.87a5.89 5.89 0 1 1 5.79-6.08A5.78 5.78 0 0 1 173.12 488.87ZM357.89 89a5.7 5.7 0 1 1 5.77-5.46A5.89 5.89 0 0 1 357.89 89ZM296 517.32a5.7 5.7 0 1 1-5.69 5.54A5.89 5.89 0 0 1 296 517.32ZM358.62 514.39a5.76 5.76 0 1 1-5.66-5.87A5.9 5.9 0 0 1 358.62 514.39ZM154.06 131.18a5.7 5.7 0 1 1 5.72-5.5A5.89 5.89 0 0 1 154.06 131.18ZM512.19 375.18a5.7 5.7 0 1 1-5.56-5.66A5.89 5.89 0 0 1 512.19 375.18ZM387.6 91.22A5.62 5.62 0 1 1 382 85.63 5.8 5.8 0 0 1 387.6 91.22ZM114 160.63a5.62 5.62 0 1 1-5.59 5.57A5.8 5.8 0 0 1 114 160.63ZM514.66 356.09a5.62 5.62 0 1 1 5.46-5.7A5.82 5.82 0 0 1 514.66 356.09ZM504.86 206.74a5.39 5.39 0 1 1-5.22 5.37A5.3 5.3 0 0 1 504.86 206.74ZM503.86 399.13a5.38 5.38 0 1 1-5.32-5.27A5.31 5.31 0 0 1 503.86 399.13ZM488 185.47a5.39 5.39 0 1 1 5.66-4.9A5.31 5.31 0 0 1 488 185.47ZM251.51 70.68A5.29 5.29 0 1 1 246.37 76 5.12 5.12 0 0 1 251.51 70.68ZM333.24 80.52a5.28 5.28 0 1 1 5.24-5.24A5.12 5.12 0 0 1 333.24 80.52ZM449.52 470.16a5.39 5.39 0 1 1 5.55-5A5.31 5.31 0 0 1 449.52 470.16ZM522.22 330.86a5.16 5.16 0 1 1 5.42-4.68A5.08 5.08 0 0 1 522.22 330.86ZM406.76 104.42a5.15 5.15 0 1 1 5.13-5A5.08 5.08 0 0 1 406.76 104.42ZM96.57 402.26a5.11 5.11 0 1 1-4.92-5.2A5.11 5.11 0 0 1 96.57 402.26ZM154 475a5.06 5.06 0 1 1-5-5.08A5.16 5.16 0 0 1 154 475ZM65.83 308.34a5 5 0 1 1-4.85 5A5.16 5.16 0 0 1 65.83 308.34ZM495.27 424.15a4.89 4.89 0 0 1-5 4.66 4.8 4.8 0 0 1-4.54-5.12 4.63 4.63 0 0 1 4.82-4.46A4.78 4.78 0 0 1 495.27 424.15ZM303.64 67.41a4.88 4.88 0 0 1 4.72-5 4.78 4.78 0 0 1 4.86 4.81A4.64 4.64 0 0 1 308.7 72 4.8 4.8 0 0 1 303.64 67.41ZM521.62 249.55c-2.83-.34-4.42-1.89-4.46-4.75a4.45 4.45 0 0 1 5-4.53c2.85.3 4.39 2.05 4.25 4.88S524.42 249.4 521.62 249.55ZM107.76 430.28a4.38 4.38 0 0 1 4.34 4.56 4.45 4.45 0 0 1-4.81 4.7c-2.85-.21-4.39-1.87-4.44-4.72C102.82 432.24 104.89 430.28 107.76 430.28ZM79.38 370.25c-.33 2.83-1.85 4.44-4.72 4.5a4.46 4.46 0 0 1-4.57-4.94c.29-2.85 2-4.4 4.85-4.28S79.22 367.45 79.38 370.25ZM472.24 142.66c2.81.23 4.48 1.68 4.65 4.55a4.45 4.45 0 0 1-4.77 4.74c-2.85-.19-4.48-1.83-4.45-4.68S469.42 142.92 472.24 142.66ZM430.79 111.73a4.29 4.29 0 0 1-4.47-4.6 4.13 4.13 0 0 1 4.41-4.29 4.3 4.3 0 0 1 4.48 4.59A4.34 4.34 0 0 1 430.79 111.73ZM122.21 137.06c2.58.38 4.16 1.76 4.21 4.48a4.25 4.25 0 0 1-4.69 4.33c-2.67-.29-4.17-1.91-4-4.59S119.53 137.26 122.21 137.06ZM530.69 306.12c-2.68-.2-4.32-1.51-4.55-4.21a4.24 4.24 0 0 1 4.42-4.6c2.69.12 4.27 1.64 4.32 4.33S533.27 305.74 530.69 306.12ZM324.58 531.25c-.34 2.59-1.73 4.15-4.47 4.23a4.44 4.44 0 1 1 .31-8.87C323.15 526.86 324.44 528.53 324.58 531.25ZM414.4 507.22c-1.61 1.08-3.14 2.84-4.86 3.07-2.4.32-4.06-1.59-4-4.1s1.78-4.35 4.18-3.92c1.72.31 3.16 2.13 4.73 3.27Q414.42 506.38 414.4 507.22ZM199.5 84.79c-1.58 1.07-3.21 3-4.73 3S191.32 85.54 191 84a3.28 3.28 0 0 1 3.92-3.92c1.62.26 3 2 4.51 3ZM381.48 523.32c-1.63 1-3.34 2.89-4.86 2.74s-3.34-2.36-3.58-3.9a3.29 3.29 0 0 1 4.1-3.74c1.61.33 2.92 2.1 4.36 3.23Q381.49 522.49 381.48 523.32ZM163 105.08c-3.29-.76-5-2.13-4.47-4.47a5.63 5.63 0 0 1 3.59-3.47c2.35-.49 4 1.34 3.61 3.71C165.44 102.38 163.93 103.68 163 105.08ZM483.48 444.44c.91 1.43 2.37 2.77 2.6 4.3.36 2.41-1.31 3.81-3.77 3.74s-4-1.68-3.47-4c.33-1.51 1.92-2.73 3-4.08ZM218.88 524.54c-1.48 1-3 2.8-4.41 2.72s-3.2-2-3.53-3.43a3 3 0 0 1 3.63-3.7c1.53.24 2.86 1.71 4.28 2.63Q218.86 523.65 218.88 524.54ZM446 490.32c-1.4 1-2.7 2.47-4.23 2.75-2.2.4-3.64-1.17-3.68-3.47s1.33-3.93 3.55-3.61c1.54.22 2.9 1.69 4.34 2.6ZM58.92 333.22c.89 1.44 2.65 3 2.42 4.29a5.13 5.13 0 0 1-3.68 3.21c-1 .11-3-2.14-3.07-3.37s1.7-2.78 2.66-4.17ZM128.41 468.42c-1.39 1-2.9 2.8-4.15 2.64a5.11 5.11 0 0 1-3.39-3.5c-.16-1 2-3.17 3.19-3.25 1.38-.09 2.87 1.56 4.32 2.46Q128.4 467.59 128.41 468.42ZM228.52 63.81c.9 1.43 2.68 3 2.47 4.26a5.13 5.13 0 0 1-3.64 3.24c-1 .12-3.07-2.11-3.1-3.33 0-1.38 1.67-2.81 2.62-4.21ZM74.06 202.86c.94 1.41 2.75 2.95 2.57 4.2a5.12 5.12 0 0 1-3.55 3.33c-1 .14-3.12-2-3.19-3.25s1.6-2.84 2.51-4.26ZM288.63 60.26c-1.46.88-2.84 2.31-4.38 2.5-2.23.28-3.56-1.4-3.47-3.69s1.57-3.84 3.76-3.39c1.52.31 2.79 1.85 4.17 2.85ZM65 236c-.91-1.44-2.36-2.8-2.58-4.33-.32-2.22 1.32-3.59 3.61-3.55s3.87 1.48 3.47 3.69c-.28 1.53-1.79 2.82-2.75 4.22ZM242.82 532.55c-1.4 1-2.7 2.47-4.22 2.75-2.2.41-3.64-1.17-3.69-3.47s1.32-3.93 3.55-3.61c1.54.22 2.89 1.68 4.33 2.58ZM189.94 520.73c-1.72-2.21-3.65-3.65-3.47-4.73.24-1.4 2.15-2.53 3.35-3.77 1.15 1.16 3.09 2.23 3.24 3.52S191.49 518.4 189.94 520.73ZM58.19 251.56c1.53 2.33 3.34 3.91 3.07 5-.34 1.38-2.34 2.36-3.62 3.51-1.06-1.25-2.92-2.47-3-3.76S56.46 253.75 58.19 251.56ZM542.43 276.75c-2 1.6-3.25 3.46-4.29 3.33-1.35-.17-2.5-1.94-3.73-3 1.14-1.17 2.15-3 3.48-3.3C538.92 273.54 540.36 275.3 542.43 276.75ZM85.67 182.94c-2 1.47-3.32 3.08-4.22 2.89-1.22-.26-2.15-1.91-3.2-3 1-1 2-2.58 3.09-2.7S83.6 181.53 85.67 182.94ZM263.11 544.4c-1.42-2.26-2.95-3.63-2.77-4.72s2-2.88 3.08-2.84 2.75 1.91 2.84 3.08S264.71 542.26 263.11 544.4ZM512.85 192.72c-1.42-2.26-2.95-3.63-2.77-4.72s2-2.88 3.08-2.84 2.75 1.91 2.84 3.08S514.45 190.58 512.85 192.72ZM460.14 114.76c-2.27 1.41-3.64 2.94-4.73 2.76s-2.87-2-2.83-3.09 1.92-2.74 3.09-2.83S458 113.16 460.14 114.76ZM129.9 121.78c-1.33-2.12-2.74-3.38-2.58-4.4s1.84-1.91 2.85-2.85c.94 1 2.54 2 2.63 3.06S131.37 119.77 129.9 121.78ZM165.23 511.79c-1.43-1.78-3-2.93-2.89-3.78.2-1.16 1.73-2.09 2.69-3.12.94.93 2.5 1.77 2.64 2.8S166.45 509.87 165.23 511.79ZM500.36 155.11c-1.79 1.43-2.94 3-3.79 2.88-1.16-.2-2.1-1.73-3.13-2.68.93-.94 1.77-2.51 2.8-2.64S498.43 153.89 500.36 155.11ZM50.18 284.64c-1.43-1.79-3-2.94-2.87-3.79.2-1.16 1.73-2.1 2.68-3.13.94.93 2.51 1.77 2.64 2.8S51.41 282.7 50.18 284.64ZM533.84 220.05c-1.81 1.36-2.89 2.8-3.88 2.75s-2-1.55-3-2.41c1-1 1.76-2.63 2.9-2.92C530.68 217.26 532 218.76 533.84 220.05ZM349.16 539.15c-2.1 1.35-3.34 2.79-4.36 2.64s-1.93-1.81-2.89-2.81c1-1 1.94-2.56 3-2.67S347.13 537.69 349.16 539.15ZM83.6 423.48c1 1.58 2 2.5 2.16 3.52.08.69-1.13 1.52-1.75 2.28a15.28 15.28 0 0 1-2.57-3C81.27 426 82.48 424.9 83.6 423.48ZM66.75 390.81c1 1.42 2.2 2.33 2.25 3.29 0 .78-1.26 1.62-2 2.44a17.79 17.79 0 0 1-2.33-3.2C64.56 393 65.69 392.07 66.75 390.81Z" style="fill:#211c1d"/><path d="M27.66,314.38L83.41,338.1,47.28,404.33A4.57,4.57,0,0,0,51.89,411l93.77-12.33L160,446.37a4.57,4.57,0,0,0,6.42,2.77l42.46-21.23,36.36,60.6a4.59,4.59,0,0,0,3.86,2.22h0.06a4.5,4.5,0,0,0,2.38-.73c0.11-.06.19-0.13,0.3-0.2s0.19-.13.3-0.2,0.19-.13.3-0.2,0.19-.13.3-0.2,0.19-.13.3-0.2,0.19-.13.3-0.2,0.19-.13.3-0.2,0.19-.13.3-0.2,0.19-.13.3-0.2,0.19-.13.3-0.2,0.19-.13.3-0.2,0.19-.13.3-0.2,0.19-.13.3-0.2,0.19-.13.3-0.2,0.19-.13.3-0.2,0.19-.13.3-0.2,0.19-.13.3-0.2,0.19-.13.3-0.2,0.19-.13.3-0.2,0.19-.13.3-0.2,0.19-.13.3-0.2,0.19-.13.3-0.2,0.19-.13.3-0.2,0.19-.13.3-0.2,0.19-.13.3-0.2,0.19-.13.3-0.2,0.19-.13.3-0.2,0.19-.13.3-0.2,0.19-.13.3-0.2,0.19-.13.3-0.2,0.19-.13.3-0.2,0.19-.13.3-0.2,0.19-.13.3-0.2,0.19-.13.3-0.2,0.19-.13.3-0.2,0.19-.13.3-0.2,0.19-.13.3-0.2,0.19-.13.3-0.2,0.19-.13.3-0.2,0.19-.13.3-0.2a4.52,4.52,0,0,0,1.78-1.58l26.2-41.17,41.29,27.53a4.58,4.58,0,0,0,3.56.65,4.5,4.5,0,0,0,1.78-.88c0.1-.07.2-0.12,0.3-0.2s0.2-.12.3-0.2,0.2-.12.3-0.2,0.2-.12.3-0.2,0.2-.12.3-0.2,0.2-.12.3-0.2,0.2-.12.3-0.2,0.2-.12.3-0.2,0.2-.12.3-0.2,0.2-.12.3-0.2,0.2-.12.3-0.2,0.2-.12.3-0.2,0.2-.12.3-0.2,0.2-.12.3-0.2,0.2-.12.3-0.2,0.2-.12.3-0.2,0.2-.12.3-0.2,0.2-.12.3-0.2,0.2-.12.3-0.2,0.2-.12.3-0.2,0.2-.12.3-0.2,0.2-.12.3-0.2,0.2-.12.3-0.2,0.2-.12.3-0.2,0.2-.12.3-0.2,0.2-.12.3-0.2,0.2-.12.3-0.2,0.2-.12.3-0.2,0.2-.12.3-0.2,0.2-.12.3-0.2,0.2-.12.3-0.2,0.2-.12.3-0.2,0.2-.12.3-0.2,0.2-.12.3-0.2,0.2-.12.3-0.2,0.2-.12.3-0.2,0.2-.12.3-0.2,0.2-.12.3-0.2,0.2-.12.3-0.2,0.2-.12.3-0.2a4.47,4.47,0,0,0,1.44-1.47l17.78-30.49L425.18,463a4.56,4.56,0,0,0,4.49.27c0.09,0,.13-0.13.21-0.18l0.09,0c0.09,0,.13-0.13.21-0.18l0.09,0c0.09,0,.13-0.13.21-0.18l0.09,0c0.09,0,.13-0.13.21-0.18l0.09,0c0.09,0,.13-0.13.21-0.18l0.09,0c0.09,0,.13-0.13.21-0.18l0.09,0c0.09,0,.13-0.13.21-0.18l0.09,0c0.09,0,.13-0.13.21-0.18l0.09,0c0.09,0,.13-0.13.21-0.18l0.09,0c0.09,0,.13-0.13.21-0.18l0.09,0c0.09,0,.13-0.13.21-0.18l0.09,0c0.09,0,.13-0.13.21-0.18l0.09,0c0.09,0,.13-0.13.21-0.18l0.09,0c0.09,0,.13-0.13.21-0.18l0.09,0c0.09,0,.13-0.13.21-0.18l0.09,0c0.09,0,.13-0.13.21-0.18l0.09,0c0.09,0,.13-0.13.21-0.18l0.09,0c0.09,0,.13-0.13.21-0.18l0.09,0c0.09,0,.13-0.13.21-0.18l0.09,0c0.09,0,.13-0.13.21-0.18l0.09,0c0.09,0,.13-0.13.21-0.18l0.09,0c0.09,0,.13-0.13.21-0.18l0.09,0c0.09,0,.13-0.13.21-0.18l0.09,0c0.09,0,.13-0.13.21-0.18l0.09,0c0.09,0,.13-0.13.21-0.18l0.09,0c0.09,0,.13-0.13.21-0.18l0.09,0c0.09,0,.13-0.13.21-0.18l0.09,0c0.09,0,.13-0.13.21-0.18l0.09,0c0.09,0,.13-0.13.21-0.18l0.09,0c0.09,0,.13-0.13.21-0.18l0.09,0c0.09,0,.13-0.13.21-0.18l0.09,0c0.09,0,.13-0.13.21-0.18l0.09,0c0.09,0,.13-0.13.21-0.18l0.09,0c0.09,0,.13-0.13.21-0.18l0.09,0c0.09,0,.13-0.13.21-0.18l0.09,0c0.09,0,.13-0.13.21-0.18l0.09,0c0.09,0,.13-0.13.21-0.18l0.09,0c0.09,0,.13-0.13.21-0.18l0.09,0c0.09,0,.13-0.13.21-0.18l0.09,0c0.09,0,.13-0.13.21-0.18l0.09,0c0.09,0,.13-0.13.21-0.18l0.09,0a4.57,4.57,0,0,0,2.55-3.7l5-56.36,51.81,10.75a2.86,2.86,0,0,0,1,.1,5.26,5.26,0,0,0,3.25-1.4c0.09-.08.21-0.12,0.3-0.2s0.21-.12.3-0.2,0.21-.12.3-0.2,0.21-.12.3-0.2,0.21-.12.3-0.2,0.21-.12.3-0.2,0.21-.12.3-0.2,0.21-.12.3-0.2,0.21-.12.3-0.2,0.21-.12.3-0.2,0.21-.12.3-0.2,0.21-.12.3-0.2,0.21-.12.3-0.2,0.21-.12.3-0.2,0.21-.12.3-0.2,0.21-.12.3-0.2,0.21-.12.3-0.2,0.21-.12.3-0.2,0.21-.12.3-0.2,0.21-.12.3-0.2,0.21-.12.3-0.2,0.21-.12.3-0.2,0.21-.12.3-0.2,0.21-.12.3-0.2,0.21-.12.3-0.2,0.21-.12.3-0.2,0.21-.12.3-0.2,0.21-.12.3-0.2,0.21-.12.3-0.2,0.21-.12.3-0.2,0.21-.12.3-0.2,0.21-.12.3-0.2,0.21-.12.3-0.2,0.21-.11.3-0.2,0.21-.12.3-0.2,0.21-.12.3-0.2,0.21-.12.3-0.2,0.21-.12.3-0.2,0.21-.12.3-0.2,0.21-.12.3-0.2a4.32,4.32,0,0,0,1.67-3.36,4.56,4.56,0,0,0-.61-2.28l-18.79-61.9L574,309.45a4.47,4.47,0,0,0,1.43-.69l0.3-.2,0.3-.2,0.3-.2,0.3-.2,0.3-.2,0.3-.2,0.3-.2,0.3-.2,0.3-.2,0.3-.2,0.3-.2,0.3-.2,0.3-.2,0.3-.2,0.3-.2,0.3-.2,0.3-.2,0.3-.2,0.3-.2,0.3-.2,0.3-.2,0.3-.2,0.3-.2,0.3-.2,0.3-.2,0.3-.2,0.3-.2,0.3-.2,0.3-.2,0.3-.2,0.3-.2,0.3-.2,0.3-.2,0.3-.2,0.3-.2,0.3-.2,0.3-.2,0.3-.2,0.3-.2,0.3-.2a4.55,4.55,0,0,0-.17-8l-90.49-47.69L540,182.62a4.57,4.57,0,0,0-4.69-7.08l-87.68,18.27L438,122.88a4.57,4.57,0,0,0-7-3.2L359.34,167,321.87,95.68a4.58,4.58,0,0,0-4-2.45,3.29,3.29,0,0,0-2.49.65l-0.3.2c-0.1.06-.2,0.13-0.3,0.2l-0.3.2-0.3.2c-0.1.06-.2,0.13-0.3,0.2s-0.2.13-.3,0.2-0.2.13-.3,0.2l-0.3.2-0.3.2-0.3.2c-0.1.06-.2,0.13-0.3,0.2l-0.3.2-0.3.2-0.3.2-0.3.2-0.3.2-0.3.2-0.3.2-0.3.2-0.3.2-0.3.2-0.3.2-0.3.2-0.3.2-0.3.2-0.3.2-0.3.2-0.3.2-0.3.2-0.3.2c-0.1.06-.2,0.13-0.3,0.2l-0.3.2-0.3.2-0.3.2-0.3.2-0.3.2-0.3.2-0.3.2-0.3.2-0.3.2a5.09,5.09,0,0,0-1.85,1.87l-33.56,59.23-55-51.74a4.55,4.55,0,0,0-4.56-1,4.31,4.31,0,0,0-.59.4h0c-0.12,0-.18.15-0.3,0.2h0a4.45,4.45,0,0,0-1.19.79h0a4.54,4.54,0,0,0-1.78,1.19h0a4.41,4.41,0,0,0-.89.59h0a4.32,4.32,0,0,0-.59.4h0a4.39,4.39,0,0,0-.89.59h0a4.37,4.37,0,0,0-.59.4h0a4.4,4.4,0,0,0-.89.59h0a4.41,4.41,0,0,0-.89.59h0c-0.12,0-.18.15-0.3,0.2h0a4.43,4.43,0,0,0-1.19.79h0c-0.12,0-.18.15-0.3,0.2h0a4.42,4.42,0,0,0-1.19.79h0a4.59,4.59,0,0,0-2,1.35c-0.08.08-.22,0.11-0.3,0.2a4.45,4.45,0,0,0-1.34,2.38l-9.86,55.23-69.63-23.21a4.59,4.59,0,0,0-4.08.64l-0.3.2-0.3.2-0.3.2-0.3.2-0.3.2-0.3.2-0.3.2-0.3.2-0.3.2-0.3.2-0.3.2-0.3.2-0.3.2-0.3.2-0.3.2-0.3.2-0.3.2-0.3.2-0.3.2-0.3.2-0.3.2-0.3.2-0.3.2-0.3.2-0.3.2-0.3.2-0.3.2-0.3.2-0.3.2-0.3.2-0.3.2-0.3.2-0.3.2-0.3.2-0.3.2-0.3.2-0.3.2-0.3.2-0.3.2-0.3.2a4.5,4.5,0,0,0-1.18,1,4.57,4.57,0,0,0-.48,5.14l30,53.88-51.51,4.44a4.54,4.54,0,0,0-2.55,1.07c-0.1.07-.21,0.12-0.3,0.2s-0.21.12-.3,0.2-0.21.12-.3,0.2-0.21.12-.3,0.2-0.21.12-.3,0.2-0.21.12-.3,0.2-0.21.12-.3,0.2-0.21.12-.3,0.2-0.21.12-.3,0.2-0.21.12-.3,0.2-0.21.12-.3,0.2-0.21.12-.3,0.2-0.21.12-.3,0.2-0.21.12-.3,0.2-0.21.12-.3,0.2-0.21.12-.3,0.2-0.21.12-.3,0.2-0.21.12-.3,0.2-0.21.12-.3,0.2-0.21.12-.3,0.2-0.21.12-.3,0.2-0.21.12-.3,0.2-0.21.12-.3,0.2-0.21.12-.3,0.2-0.21.12-.3,0.2-0.21.12-.3,0.2-0.21.12-.3,0.2-0.21.12-.3,0.2-0.21.12-.3,0.2-0.21.12-.3,0.2-0.21.12-.3,0.2-0.21.12-.3,0.2-0.21.12-.3,0.2-0.21.12-.3,0.2-0.21.12-.3,0.2-0.21.12-.3,0.2-0.21.12-.3,0.2-0.2.12-.3,0.2-0.21.12-.3,0.2-0.21.12-.3,0.2a4.51,4.51,0,0,0-.11,7.33l38.81,29.37L39.84,297.85a4.54,4.54,0,0,0-1.17.74c-0.1.07-.21,0.12-0.3,0.2s-0.21.12-.3,0.2-0.21.12-.3,0.2-0.21.12-.3,0.2-0.21.12-.3,0.2-0.21.12-.3,0.2-0.21.12-.3,0.2-0.21.12-.3,0.2-0.21.12-.3,0.2-0.21.12-.3,0.2-0.21.12-.3,0.2-0.21.12-.3,0.2-0.21.12-.3,0.2-0.21.12-.3,0.2-0.21.12-.3,0.2-0.21.12-.3,0.2-0.21.12-.3,0.2-0.21.12-.3,0.2-0.21.12-.3,0.2-0.21.12-.3,0.2-0.21.12-.3,0.2-0.21.12-.3,0.2-0.21.12-.3,0.2-0.21.12-.3,0.2-0.21.12-.3,0.2-0.21.12-.3,0.2-0.21.12-.3,0.2-0.21.12-.3,0.2-0.21.12-.3,0.2-0.21.12-.3,0.2-0.21.12-.3,0.2-0.21.12-.3,0.2-0.21.12-.3,0.2-0.21.12-.3,0.2-0.21.12-.3,0.2-0.21.12-.3,0.2-0.21.12-.3,0.2-0.21.12-.3,0.2-0.21.12-.3,0.2-0.21.12-.3,0.2A4.54,4.54,0,0,0,27.66,314.38Z" style="fill:#211c1d"/><path d="M106.33,326.24a4.54,4.54,0,0,1-.3,3.69L71.8,392.69,160.51,381a4.59,4.59,0,0,1,5,3.21l13.85,46.18,41.39-20.69a4.52,4.52,0,0,1,2-.48,4.58,4.58,0,0,1,3.93,2.22l34.73,57.88,32-50.28a4.54,4.54,0,0,1,2.91-2,4.46,4.46,0,0,1,3.48.67l46.06,30.71,24.53-42.06a4.57,4.57,0,0,1,6.43-1.54L436,443.1l5.75-64.39a4.57,4.57,0,0,1,5.48-4.07l60.54,12.56-19.6-64.56a4.57,4.57,0,0,1,3.21-5.75l81.14-21.41-84.68-44.63a4.56,4.56,0,0,1-1.63-6.64l39.73-57.39-81.28,16.94a4.52,4.52,0,0,1-3.57-.74,4.58,4.58,0,0,1-1.89-3.12l-9.3-68.58-69.72,46.09a4.57,4.57,0,0,1-6.56-1.69l-35.92-68.37-39.55,69.79a4.56,4.56,0,0,1-3.29,2.26,4.61,4.61,0,0,1-3.81-1.18l-58.08-54.6-11.36,63.63a4.58,4.58,0,0,1-5.95,3.54L122,166.24l31.51,56.51a4.57,4.57,0,0,1-3.6,6.78l-62.65,5.4,38,28.79a4.57,4.57,0,0,1-1,7.84L53.28,302l50.53,21.5A4.57,4.57,0,0,1,106.33,326.24Z" style="fill:#ffcd05"/><path d="M39.85 306.26 95.59 330 59.47 396.2a4.57 4.57 0 0 0 4.61 6.72l93.77-12.33 14.3 47.65a4.57 4.57 0 0 0 6.42 2.77L221 419.79l36.36 60.6a4.59 4.59 0 0 0 3.86 2.22h.06a4.57 4.57 0 0 0 3.86-2.12l33.46-52.58 46.21 30.81a4.57 4.57 0 0 0 6.48-1.5l24.56-42.11 61.5 39.79a4.57 4.57 0 0 0 7-3.43l6-66.82 63.06 13.09a2.86 2.86 0 0 0 1 .1 4.75 4.75 0 0 0 4.62-4.57 4.56 4.56 0 0 0-.61-2.28l-20.17-66.44 87.9-23.2a4.57 4.57 0 0 0 1-8.46l-90.49-47.69L540 182.62a4.57 4.57 0 0 0-4.69-7.08l-87.68 18.27L438 122.88a4.57 4.57 0 0 0-7-3.2L359.34 167 321.87 95.68a4.58 4.58 0 0 0-4-2.45c-1.58-.32-3.23.86-4 2.32l-40.8 72-60-56.4a4.57 4.57 0 0 0-7.63 2.53l-11.91 66.73-79.77-26.59a4.57 4.57 0 0 0-5.44 6.56L142.11 221l-67.46 5.81a4.57 4.57 0 0 0-2.36 8.2l41.26 31.22-73.7 31.58A4.57 4.57 0 0 0 39.85 306.26Zm84.52-34.69a4.57 4.57 0 0 0 1-7.84l-38-28.79 62.65-5.4a4.57 4.57 0 0 0 3.6-6.78L122 166.24l73.61 24.54a4.58 4.58 0 0 0 5.95-3.54l11.36-63.63L271 178.21a4.61 4.61 0 0 0 3.81 1.18 4.56 4.56 0 0 0 3.29-2.26l39.55-69.79 35.92 68.37a4.57 4.57 0 0 0 6.56 1.69l69.72-46.09 9.3 68.58a4.58 4.58 0 0 0 1.89 3.12 4.52 4.52 0 0 0 3.57.74l81.28-16.94L486.2 244.21a4.56 4.56 0 0 0 1.63 6.64l84.68 44.63L491.36 316.9a4.57 4.57 0 0 0-3.21 5.75l19.6 64.56L447.2 374.64a4.57 4.57 0 0 0-5.48 4.07L436 443.1l-59.15-38.28a4.57 4.57 0 0 0-6.43 1.54l-24.53 42.06-46.06-30.71a4.46 4.46 0 0 0-3.48-.67 4.54 4.54 0 0 0-2.91 2l-32 50.28-34.73-57.88a4.58 4.58 0 0 0-3.93-2.22 4.52 4.52 0 0 0-2 .48l-41.39 20.69-13.85-46.18a4.59 4.59 0 0 0-5-3.21L71.8 392.69 106 329.93a4.58 4.58 0 0 0-2.22-6.4L53.28 302ZM57.1 423.58c-14.55 2.29-29.19 9.55-43.17 14.26-5.22 1.76-4.5 9.86 1.33 9.81 15.27-.14 32.74-7.18 45.59-15.17C65.8 429.39 62.37 422.74 57.1 423.58ZM68.51 442c-7.74 1.71-15.11 5.65-22 9.45-5.23 2.87-.59 10.76 4.66 8 6.71-3.57 14.12-6 20.45-10.12A4 4 0 0 0 68.51 442ZM48.44 182.63c-7.26-8.6-22.14-13.88-33.18-13.58-4.7.13-4.63 7 0 7.24 11.76.73 18.69 9.94 29.29 13C48.65 190.49 50.88 185.53 48.44 182.63ZM57.93 170.73c-4.59-3-9.45-5.55-14.13-8.42-3-1.85-5.82 3-2.77 4.74a106.55 106.55 0 0 0 15.17 7.78C58.68 175.8 60 172.05 57.93 170.73ZM510.77 89.5a68.67 68.67 0 0 1-11.38 11.77c-3.88 3.32-8.19 6.22-10.88 10.66-1.78 2.95 1.65 5.81 4.44 4.44 5-2.45 9-6.78 13-10.6A70.29 70.29 0 0 0 516.59 92.9C519 89.17 513.26 86 510.77 89.5ZM514.31 119c-2.34 2.1-4 3.6-5.12 6.56-.8 2 1.65 4.48 3.68 3.68 3-1.16 4.46-2.78 6.56-5.12A3.62 3.62 0 0 0 514.31 119ZM549.68 436.85c-8.42-5.24-18.28-8.24-27.1-12.89-5.72-3-10.4 5.09-5 8.62 9 5.9 18.65 12.89 29.68 13.34C552.24 446.12 553.63 439.3 549.68 436.85ZM549.43 402.13c-5.1-3-11.32-3.74-16.89-5.71-2.5-.89-5.32 1-6 3.4-.77 2.8 1 5 3.4 6 5.36 2.24 11.37 5 17.27 4.47C551.34 409.87 553.45 404.47 549.43 402.13Z" style="fill:#211c1d"/><rect width="600" height="600" style="fill:#fff;opacity:0"/></svg>